<?xml version="1.0" encoding="UTF-8"?>
<svg id="Layer_1" xmlns="http://www.w3.org/2000/svg" version="1.1" viewBox="0 0 2500 2207">
  <!-- Generator: Adobe Illustrator 29.6.0, SVG Export Plug-In . SVG Version: 2.1.1 Build 207)  -->
  <defs>
    <style>
      @media (prefers-color-scheme: dark) {
        .st0 {
          fill: #fff;
        }

        .st1 {
          fill: #fff;
        }

        .st2 {
          fill: #fff;
        }

        .st3 {
          fill: #000;
        }
      }

      @media (prefers-color-scheme: light) {
        .st0 {
          fill: #000;
        }

        .st1 {
          fill: #000;
        }

        .st2 {
          fill: #000;
        }

        .st3 {
          fill: #fff;
        }
      }

    </style>
  </defs>
  <g>
    <path class="st2" d="M1643.6,527.8c3.7-9.2-3.9-18.2-3.9-18.2,0,0-59.5-101.3-270.3-123.8-112.8-12-266.4,10.8-374,68.9-195.1,105.1-224.3,278.2-224.3,278.2-1.1,4.2-3,17.1,1.4,22.6,4.5,5.6,11,5.5,19,2.8,68.8-23.3,274-91.3,403.5-125.7,184.3-48.8,335.6-78.6,432.8-95.1,6.9-1.2,13.1-3.4,15.7-9.8h0Z"/>
    <path class="st1" d="M480.8,932.6c-3-6-6.3-10.7-9.7-14.2,79.3-333.1,375.7-616.4,786.3-616.4s161.8,13.4,238.9,38c-50-11.3-116.4-22.8-189.8-22.8-398.6,0-697.2,260.7-760,613.1-16.6,5.6-27.9,19.8-33.6,42.1l-4.3,17.1-27.8-56.9Z"/>
    <path class="st1" d="M502.4,1172.3l-51.9-105.2c1.8-45.9,7.8-91.6,17.7-136.4,1.3,1.9,2.5,4,3.6,6.3l39.8,81.4,11-43.6c4.2-16.3,11.5-27.2,21.9-32.8-6.8,41.6-10.2,84.3-10.2,128.1s1.7,60.1,5,89c-3.4,2.6-7.1,4.4-11.3,5.7l-25.6,7.6Z"/>
    <path class="st1" d="M492.8,1280c-6.3,9.8-11.3,20-14.9,30.8-18.3-68.4-28-140.2-28-213.9s0-5.5,0-8.3l47.2,95.7,33.7-9.9c3.5-1,6.8-2.4,9.8-4.2,2.5,19.9,5.9,39.5,9.9,58.7-23.9,11.5-43.3,28.6-57.7,51.1Z"/>
    <path class="st1" d="M563,1497.7c-3,0-6.1,0-9.3-.2-7.7-13.8-15.1-27.9-22-42.2,7,2,18.2,3.7,37.5,4.3,21,.6,37.6,2,49.3,4,3.9.7,11.2,1.9,12.4,9.8.7,4.6-8.4,11.6-23.2,17.8-10.2,4.3-25.2,6.4-44.6,6.4Z"/>
    <path class="st1" d="M700.9,1530c-16.5,25.8-39.5,43.8-69,53.9-6.1,2.1-12.2,4-18.3,5.6-19.7-26.1-37.7-53.4-54.2-81.8,22.6.3,40-2.1,52.1-7.2,21-8.8,30.8-18.3,29.3-28.5-1.5-10-8.3-16.1-20.5-18.2-12.2-2.1-29.1-3.5-50.7-4.1-21.7-.6-35.5-2.8-41.6-6.6-.9-.3-1.7-.6-2.5-1-16.7-36.2-30.9-73.8-42.3-112.6,3.2-15.7,9.2-30.4,18.1-44.1,13-20.4,30.2-35.9,51.5-46.5,6,26.5,13.4,52.3,22.1,77.2-9.5,4.6-13.3,11.3-11.3,20.2,1.3,9,8.1,15,20.2,18,2,.5,4.1.9,6.3,1.4,20.8,49.6,47.2,95.7,78.3,137.7l32.6,36.5Z"/>
    <path class="st1" d="M1988.4,1416.7c-74.6,183.4-308,488.4-740.6,488.4s-483.6-121-627.6-307c5-1.4,10-3,15-4.7,30.6-10.5,55-29.2,72.6-55.6l38.2,42.9c128.7,120.7,306.9,189.9,508.8,187,277.3-3.9,488.9-176.3,599.2-424l134.3,73Z"/>
    <path class="st2" d="M933.7,1555.2c-4.5,10.3,5.7,20.5,5.7,20.5,43.7,54.8,237.7,124.3,448.2,73.4,321.5-77.8,389.5-305.2,397.2-337.4,1.6-6.6,2.8-17.1-3.2-23.4-5.1-5.3-12.3-5.3-22.4-3-223.3,52.5-594.9,165.9-809.2,257.7-9.2,3.9-13.4,5.4-16.3,12.1h0Z"/>
    <path class="st3" d="M1668.7,1368.3c-29.8,76.5-90.9,166.4-198.7,227.6h0c95.7-37.6,187.6-109.5,238.5-217.2,14.7-31.1-27.8-47-39.8-10.5ZM1270.4,402.3c127,8.5,203.1,57.4,203.5,91.4.2,21.5-18.4,40.5-43.4,48h0c63.8-15.6,98.8-18,99.4-46.5,1.1-47.7-135-103-259.5-93ZM836.4,681.6c-1.7,20.9,26,23.9,28.6,1.7,25-95.9,101.3-186.3,173.8-230.7-118.2,52.2-198,176.4-202.4,229Z"/>
    <path class="st0" d="M1969.2,1314.4c9.7-.8,17.1-5.5,17.1-17.4s-9.2-19.3-25.5-19.3h-24.6v65.2h12.9v-27.8h8.1l15.9,27.8h13.5l-17.4-28.5ZM1949.1,1304.9v-17.1h10.9c5.9,0,13.4,1.1,13.4,8.1s-5.5,9-12.7,9h-11.5ZM1969.2,1314.4c9.7-.8,17.1-5.5,17.1-17.4s-9.2-19.3-25.5-19.3h-24.6v65.2h12.9v-27.8h8.1l15.9,27.8h13.5l-17.4-28.5ZM1949.1,1304.9v-17.1h10.9c5.9,0,13.4,1.1,13.4,8.1s-5.5,9-12.7,9h-11.5ZM1969.2,1314.4c9.7-.8,17.1-5.5,17.1-17.4s-9.2-19.3-25.5-19.3h-24.6v65.2h12.9v-27.8h8.1l15.9,27.8h13.5l-17.4-28.5ZM1949.1,1304.9v-17.1h10.9c5.9,0,13.4,1.1,13.4,8.1s-5.5,9-12.7,9h-11.5ZM1969.2,1314.4c9.7-.8,17.1-5.5,17.1-17.4s-9.2-19.3-25.5-19.3h-24.6v65.2h12.9v-27.8h8.1l15.9,27.8h13.5l-17.4-28.5ZM1949.1,1304.9v-17.1h10.9c5.9,0,13.4,1.1,13.4,8.1s-5.5,9-12.7,9h-11.5ZM1969.2,1314.4c9.7-.8,17.1-5.5,17.1-17.4s-9.2-19.3-25.5-19.3h-24.6v65.2h12.9v-27.8h8.1l15.9,27.8h13.5l-17.4-28.5ZM1949.1,1304.9v-17.1h10.9c5.9,0,13.4,1.1,13.4,8.1s-5.5,9-12.7,9h-11.5ZM1969.2,1314.4c9.7-.8,17.1-5.5,17.1-17.4s-9.2-19.3-25.5-19.3h-24.6v65.2h12.9v-27.8h8.1l15.9,27.8h13.5l-17.4-28.5ZM1949.1,1304.9v-17.1h10.9c5.9,0,13.4,1.1,13.4,8.1s-5.5,9-12.7,9h-11.5ZM1969.2,1314.4c9.7-.8,17.1-5.5,17.1-17.4s-9.2-19.3-25.5-19.3h-24.6v65.2h12.9v-27.8h8.1l15.9,27.8h13.5l-17.4-28.5ZM1949.1,1304.9v-17.1h10.9c5.9,0,13.4,1.1,13.4,8.1s-5.5,9-12.7,9h-11.5ZM1969.2,1314.4c9.7-.8,17.1-5.5,17.1-17.4s-9.2-19.3-25.5-19.3h-24.6v65.2h12.9v-27.8h8.1l15.9,27.8h13.5l-17.4-28.5ZM1949.1,1304.9v-17.1h10.9c5.9,0,13.4,1.1,13.4,8.1s-5.5,9-12.7,9h-11.5ZM1969.2,1314.4c9.7-.8,17.1-5.5,17.1-17.4s-9.2-19.3-25.5-19.3h-24.6v65.2h12.9v-27.8h8.1l15.9,27.8h13.5l-17.4-28.5ZM1949.1,1304.9v-17.1h10.9c5.9,0,13.4,1.1,13.4,8.1s-5.5,9-12.7,9h-11.5ZM1969.2,1314.4c9.7-.8,17.1-5.5,17.1-17.4s-9.2-19.3-25.5-19.3h-24.6v65.2h12.9v-27.8h8.1l15.9,27.8h13.5l-17.4-28.5ZM1949.1,1304.9v-17.1h10.9c5.9,0,13.4,1.1,13.4,8.1s-5.5,9-12.7,9h-11.5ZM1969.2,1314.4c9.7-.8,17.1-5.5,17.1-17.4s-9.2-19.3-25.5-19.3h-24.6v65.2h12.9v-27.8h8.1l15.9,27.8h13.5l-17.4-28.5ZM1949.1,1304.9v-17.1h10.9c5.9,0,13.4,1.1,13.4,8.1s-5.5,9-12.7,9h-11.5ZM1969.2,1314.4c9.7-.8,17.1-5.5,17.1-17.4s-9.2-19.3-25.5-19.3h-24.6v65.2h12.9v-27.8h8.1l15.9,27.8h13.5l-17.4-28.5ZM1949.1,1304.9v-17.1h10.9c5.9,0,13.4,1.1,13.4,8.1s-5.5,9-12.7,9h-11.5ZM1969.2,1314.4c9.7-.8,17.1-5.5,17.1-17.4s-9.2-19.3-25.5-19.3h-24.6v65.2h12.9v-27.8h8.1l15.9,27.8h13.5l-17.4-28.5ZM1949.1,1304.9v-17.1h10.9c5.9,0,13.4,1.1,13.4,8.1s-5.5,9-12.7,9h-11.5ZM1969.2,1314.4c9.7-.8,17.1-5.5,17.1-17.4s-9.2-19.3-25.5-19.3h-24.6v65.2h12.9v-27.8h8.1l15.9,27.8h13.5l-17.4-28.5ZM1949.1,1304.9v-17.1h10.9c5.9,0,13.4,1.1,13.4,8.1s-5.5,9-12.7,9h-11.5ZM1969.2,1314.4c9.7-.8,17.1-5.5,17.1-17.4s-9.2-19.3-25.5-19.3h-24.6v65.2h12.9v-27.8h8.1l15.9,27.8h13.5l-17.4-28.5ZM1949.1,1304.9v-17.1h10.9c5.9,0,13.4,1.1,13.4,8.1s-5.5,9-12.7,9h-11.5ZM1969.2,1314.4c9.7-.8,17.1-5.5,17.1-17.4s-9.2-19.3-25.5-19.3h-24.6v65.2h12.9v-27.8h8.1l15.9,27.8h13.5l-17.4-28.5ZM1949.1,1304.9v-17.1h10.9c5.9,0,13.4,1.1,13.4,8.1s-5.5,9-12.7,9h-11.5ZM1969.2,1314.4c9.7-.8,17.1-5.5,17.1-17.4s-9.2-19.3-25.5-19.3h-24.6v65.2h12.9v-27.8h8.1l15.9,27.8h13.5l-17.4-28.5ZM1949.1,1304.9v-17.1h10.9c5.9,0,13.4,1.1,13.4,8.1s-5.5,9-12.7,9h-11.5ZM1969.2,1314.4c9.7-.8,17.1-5.5,17.1-17.4s-9.2-19.3-25.5-19.3h-24.6v65.2h12.9v-27.8h8.1l15.9,27.8h13.5l-17.4-28.5ZM1949.1,1304.9v-17.1h10.9c5.9,0,13.4,1.1,13.4,8.1s-5.5,9-12.7,9h-11.5ZM1969.2,1314.4c9.7-.8,17.1-5.5,17.1-17.4s-9.2-19.3-25.5-19.3h-24.6v65.2h12.9v-27.8h8.1l15.9,27.8h13.5l-17.4-28.5ZM1949.1,1304.9v-17.1h10.9c5.9,0,13.4,1.1,13.4,8.1s-5.5,9-12.7,9h-11.5ZM1969.2,1314.4c9.7-.8,17.1-5.5,17.1-17.4s-9.2-19.3-25.5-19.3h-24.6v65.2h12.9v-27.8h8.1l15.9,27.8h13.5l-17.4-28.5ZM1949.1,1304.9v-17.1h10.9c5.9,0,13.4,1.1,13.4,8.1s-5.5,9-12.7,9h-11.5ZM1969.2,1314.4c9.7-.8,17.1-5.5,17.1-17.4s-9.2-19.3-25.5-19.3h-24.6v65.2h12.9v-27.8h8.1l15.9,27.8h13.5l-17.4-28.5ZM1949.1,1304.9v-17.1h10.9c5.9,0,13.4,1.1,13.4,8.1s-5.5,9-12.7,9h-11.5ZM1969.2,1314.4c9.7-.8,17.1-5.5,17.1-17.4s-9.2-19.3-25.5-19.3h-24.6v65.2h12.9v-27.8h8.1l15.9,27.8h13.5l-17.4-28.5ZM1949.1,1304.9v-17.1h10.9c5.9,0,13.4,1.1,13.4,8.1s-5.5,9-12.7,9h-11.5ZM1969.2,1314.4c9.7-.8,17.1-5.5,17.1-17.4s-9.2-19.3-25.5-19.3h-24.6v65.2h12.9v-27.8h8.1l15.9,27.8h13.5l-17.4-28.5ZM1949.1,1304.9v-17.1h10.9c5.9,0,13.4,1.1,13.4,8.1s-5.5,9-12.7,9h-11.5ZM1969.2,1314.4c9.7-.8,17.1-5.5,17.1-17.4s-9.2-19.3-25.5-19.3h-24.6v65.2h12.9v-27.8h8.1l15.9,27.8h13.5l-17.4-28.5ZM1949.1,1304.9v-17.1h10.9c5.9,0,13.4,1.1,13.4,8.1s-5.5,9-12.7,9h-11.5ZM1969.2,1314.4c9.7-.8,17.1-5.5,17.1-17.4s-9.2-19.3-25.5-19.3h-24.6v65.2h12.9v-27.8h8.1l15.9,27.8h13.5l-17.4-28.5ZM1949.1,1304.9v-17.1h10.9c5.9,0,13.4,1.1,13.4,8.1s-5.5,9-12.7,9h-11.5ZM1969.2,1314.4c9.7-.8,17.1-5.5,17.1-17.4s-9.2-19.3-25.5-19.3h-24.6v65.2h12.9v-27.8h8.1l15.9,27.8h13.5l-17.4-28.5ZM1949.1,1304.9v-17.1h10.9c5.9,0,13.4,1.1,13.4,8.1s-5.5,9-12.7,9h-11.5ZM1969.2,1314.4c9.7-.8,17.1-5.5,17.1-17.4s-9.2-19.3-25.5-19.3h-24.6v65.2h12.9v-27.8h8.1l15.9,27.8h13.5l-17.4-28.5ZM1949.1,1304.9v-17.1h10.9c5.9,0,13.4,1.1,13.4,8.1s-5.5,9-12.7,9h-11.5ZM1969.2,1314.4c9.7-.8,17.1-5.5,17.1-17.4s-9.2-19.3-25.5-19.3h-24.6v65.2h12.9v-27.8h8.1l15.9,27.8h13.5l-17.4-28.5ZM1949.1,1304.9v-17.1h10.9c5.9,0,13.4,1.1,13.4,8.1s-5.5,9-12.7,9h-11.5ZM1969.2,1314.4c9.7-.8,17.1-5.5,17.1-17.4s-9.2-19.3-25.5-19.3h-24.6v65.2h12.9v-27.8h8.1l15.9,27.8h13.5l-17.4-28.5ZM1949.1,1304.9v-17.1h10.9c5.9,0,13.4,1.1,13.4,8.1s-5.5,9-12.7,9h-11.5ZM1969.2,1314.4c9.7-.8,17.1-5.5,17.1-17.4s-9.2-19.3-25.5-19.3h-24.6v65.2h12.9v-27.8h8.1l15.9,27.8h13.5l-17.4-28.5ZM1949.1,1304.9v-17.1h10.9c5.9,0,13.4,1.1,13.4,8.1s-5.5,9-12.7,9h-11.5ZM1969.2,1314.4c9.7-.8,17.1-5.5,17.1-17.4s-9.2-19.3-25.5-19.3h-24.6v65.2h12.9v-27.8h8.1l15.9,27.8h13.5l-17.4-28.5ZM1949.1,1304.9v-17.1h10.9c5.9,0,13.4,1.1,13.4,8.1s-5.5,9-12.7,9h-11.5ZM1969.2,1314.4c9.7-.8,17.1-5.5,17.1-17.4s-9.2-19.3-25.5-19.3h-24.6v65.2h12.9v-27.8h8.1l15.9,27.8h13.5l-17.4-28.5ZM1949.1,1304.9v-17.1h10.9c5.9,0,13.4,1.1,13.4,8.1s-5.5,9-12.7,9h-11.5ZM1969.2,1314.4c9.7-.8,17.1-5.5,17.1-17.4s-9.2-19.3-25.5-19.3h-24.6v65.2h12.9v-27.8h8.1l15.9,27.8h13.5l-17.4-28.5ZM1949.1,1304.9v-17.1h10.9c5.9,0,13.4,1.1,13.4,8.1s-5.5,9-12.7,9h-11.5ZM1959.4,1252.3c-31.6,0-59.7,22.7-59.7,58s28.2,58.3,59.7,58.3,59.8-22.9,59.8-58.3-28.2-58-59.8-58ZM1959.4,1356.2c-24.4,0-43.8-19.3-43.8-45.9h0c0-26.5,19.4-45.6,43.9-45.6s43.9,19.1,43.9,45.6-19.7,45.9-43.9,45.9ZM1986.3,1297c0-14.2-9.2-19.3-25.5-19.3h-24.6v65.2h12.9v-27.8h8.1l15.9,27.8h13.5l-17.4-28.5c9.7-.8,17.1-5.5,17.1-17.4ZM1949.1,1304.9v-17.1h10.9c5.9,0,13.4,1.1,13.4,8.1s-5.5,9-12.7,9h-11.5ZM1969.2,1314.4c9.7-.8,17.1-5.5,17.1-17.4s-9.2-19.3-25.5-19.3h-24.6v65.2h12.9v-27.8h8.1l15.9,27.8h13.5l-17.4-28.5ZM1949.1,1304.9v-17.1h10.9c5.9,0,13.4,1.1,13.4,8.1s-5.5,9-12.7,9h-11.5ZM1969.2,1314.4c9.7-.8,17.1-5.5,17.1-17.4s-9.2-19.3-25.5-19.3h-24.6v65.2h12.9v-27.8h8.1l15.9,27.8h13.5l-17.4-28.5ZM1949.1,1304.9v-17.1h10.9c5.9,0,13.4,1.1,13.4,8.1s-5.5,9-12.7,9h-11.5ZM1969.2,1314.4c9.7-.8,17.1-5.5,17.1-17.4s-9.2-19.3-25.5-19.3h-24.6v65.2h12.9v-27.8h8.1l15.9,27.8h13.5l-17.4-28.5ZM1949.1,1304.9v-17.1h10.9c5.9,0,13.4,1.1,13.4,8.1s-5.5,9-12.7,9h-11.5ZM1969.2,1314.4c9.7-.8,17.1-5.5,17.1-17.4s-9.2-19.3-25.5-19.3h-24.6v65.2h12.9v-27.8h8.1l15.9,27.8h13.5l-17.4-28.5ZM1949.1,1304.9v-17.1h10.9c5.9,0,13.4,1.1,13.4,8.1s-5.5,9-12.7,9h-11.5ZM1969.2,1314.4c9.7-.8,17.1-5.5,17.1-17.4s-9.2-19.3-25.5-19.3h-24.6v65.2h12.9v-27.8h8.1l15.9,27.8h13.5l-17.4-28.5ZM1949.1,1304.9v-17.1h10.9c5.9,0,13.4,1.1,13.4,8.1s-5.5,9-12.7,9h-11.5ZM1969.2,1314.4c9.7-.8,17.1-5.5,17.1-17.4s-9.2-19.3-25.5-19.3h-24.6v65.2h12.9v-27.8h8.1l15.9,27.8h13.5l-17.4-28.5ZM1949.1,1304.9v-17.1h10.9c5.9,0,13.4,1.1,13.4,8.1s-5.5,9-12.7,9h-11.5ZM1969.2,1314.4c9.7-.8,17.1-5.5,17.1-17.4s-9.2-19.3-25.5-19.3h-24.6v65.2h12.9v-27.8h8.1l15.9,27.8h13.5l-17.4-28.5ZM1949.1,1304.9v-17.1h10.9c5.9,0,13.4,1.1,13.4,8.1s-5.5,9-12.7,9h-11.5ZM1969.2,1314.4c9.7-.8,17.1-5.5,17.1-17.4s-9.2-19.3-25.5-19.3h-24.6v65.2h12.9v-27.8h8.1l15.9,27.8h13.5l-17.4-28.5ZM1949.1,1304.9v-17.1h10.9c5.9,0,13.4,1.1,13.4,8.1s-5.5,9-12.7,9h-11.5ZM1969.2,1314.4c9.7-.8,17.1-5.5,17.1-17.4s-9.2-19.3-25.5-19.3h-24.6v65.2h12.9v-27.8h8.1l15.9,27.8h13.5l-17.4-28.5ZM1949.1,1304.9v-17.1h10.9c5.9,0,13.4,1.1,13.4,8.1s-5.5,9-12.7,9h-11.5ZM1969.2,1314.4c9.7-.8,17.1-5.5,17.1-17.4s-9.2-19.3-25.5-19.3h-24.6v65.2h12.9v-27.8h8.1l15.9,27.8h13.5l-17.4-28.5ZM1949.1,1304.9v-17.1h10.9c5.9,0,13.4,1.1,13.4,8.1s-5.5,9-12.7,9h-11.5ZM1969.2,1314.4c9.7-.8,17.1-5.5,17.1-17.4s-9.2-19.3-25.5-19.3h-24.6v65.2h12.9v-27.8h8.1l15.9,27.8h13.5l-17.4-28.5ZM1949.1,1304.9v-17.1h10.9c5.9,0,13.4,1.1,13.4,8.1s-5.5,9-12.7,9h-11.5ZM1969.2,1314.4c9.7-.8,17.1-5.5,17.1-17.4s-9.2-19.3-25.5-19.3h-24.6v65.2h12.9v-27.8h8.1l15.9,27.8h13.5l-17.4-28.5ZM1949.1,1304.9v-17.1h10.9c5.9,0,13.4,1.1,13.4,8.1s-5.5,9-12.7,9h-11.5ZM1969.2,1314.4c9.7-.8,17.1-5.5,17.1-17.4s-9.2-19.3-25.5-19.3h-24.6v65.2h12.9v-27.8h8.1l15.9,27.8h13.5l-17.4-28.5ZM1949.1,1304.9v-17.1h10.9c5.9,0,13.4,1.1,13.4,8.1s-5.5,9-12.7,9h-11.5ZM1969.2,1314.4c9.7-.8,17.1-5.5,17.1-17.4s-9.2-19.3-25.5-19.3h-24.6v65.2h12.9v-27.8h8.1l15.9,27.8h13.5l-17.4-28.5ZM1949.1,1304.9v-17.1h10.9c5.9,0,13.4,1.1,13.4,8.1s-5.5,9-12.7,9h-11.5ZM1969.2,1314.4c9.7-.8,17.1-5.5,17.1-17.4s-9.2-19.3-25.5-19.3h-24.6v65.2h12.9v-27.8h8.1l15.9,27.8h13.5l-17.4-28.5ZM1949.1,1304.9v-17.1h10.9c5.9,0,13.4,1.1,13.4,8.1s-5.5,9-12.7,9h-11.5ZM1969.2,1314.4c9.7-.8,17.1-5.5,17.1-17.4s-9.2-19.3-25.5-19.3h-24.6v65.2h12.9v-27.8h8.1l15.9,27.8h13.5l-17.4-28.5ZM1949.1,1304.9v-17.1h10.9c5.9,0,13.4,1.1,13.4,8.1s-5.5,9-12.7,9h-11.5ZM1969.2,1314.4c9.7-.8,17.1-5.5,17.1-17.4s-9.2-19.3-25.5-19.3h-24.6v65.2h12.9v-27.8h8.1l15.9,27.8h13.5l-17.4-28.5ZM1949.1,1304.9v-17.1h10.9c5.9,0,13.4,1.1,13.4,8.1s-5.5,9-12.7,9h-11.5ZM1969.2,1314.4c9.7-.8,17.1-5.5,17.1-17.4s-9.2-19.3-25.5-19.3h-24.6v65.2h12.9v-27.8h8.1l15.9,27.8h13.5l-17.4-28.5ZM1949.1,1304.9v-17.1h10.9c5.9,0,13.4,1.1,13.4,8.1s-5.5,9-12.7,9h-11.5ZM1969.2,1314.4c9.7-.8,17.1-5.5,17.1-17.4s-9.2-19.3-25.5-19.3h-24.6v65.2h12.9v-27.8h8.1l15.9,27.8h13.5l-17.4-28.5ZM1949.1,1304.9v-17.1h10.9c5.9,0,13.4,1.1,13.4,8.1s-5.5,9-12.7,9h-11.5ZM1969.2,1314.4c9.7-.8,17.1-5.5,17.1-17.4s-9.2-19.3-25.5-19.3h-24.6v65.2h12.9v-27.8h8.1l15.9,27.8h13.5l-17.4-28.5ZM1949.1,1304.9v-17.1h10.9c5.9,0,13.4,1.1,13.4,8.1s-5.5,9-12.7,9h-11.5ZM1969.2,1314.4c9.7-.8,17.1-5.5,17.1-17.4s-9.2-19.3-25.5-19.3h-24.6v65.2h12.9v-27.8h8.1l15.9,27.8h13.5l-17.4-28.5ZM1949.1,1304.9v-17.1h10.9c5.9,0,13.4,1.1,13.4,8.1s-5.5,9-12.7,9h-11.5ZM1969.2,1314.4c9.7-.8,17.1-5.5,17.1-17.4s-9.2-19.3-25.5-19.3h-24.6v65.2h12.9v-27.8h8.1l15.9,27.8h13.5l-17.4-28.5ZM1949.1,1304.9v-17.1h10.9c5.9,0,13.4,1.1,13.4,8.1s-5.5,9-12.7,9h-11.5ZM1969.2,1314.4c9.7-.8,17.1-5.5,17.1-17.4s-9.2-19.3-25.5-19.3h-24.6v65.2h12.9v-27.8h8.1l15.9,27.8h13.5l-17.4-28.5ZM1949.1,1304.9v-17.1h10.9c5.9,0,13.4,1.1,13.4,8.1s-5.5,9-12.7,9h-11.5ZM1969.2,1314.4c9.7-.8,17.1-5.5,17.1-17.4s-9.2-19.3-25.5-19.3h-24.6v65.2h12.9v-27.8h8.1l15.9,27.8h13.5l-17.4-28.5ZM1949.1,1304.9v-17.1h10.9c5.9,0,13.4,1.1,13.4,8.1s-5.5,9-12.7,9h-11.5ZM1969.2,1314.4c9.7-.8,17.1-5.5,17.1-17.4s-9.2-19.3-25.5-19.3h-24.6v65.2h12.9v-27.8h8.1l15.9,27.8h13.5l-17.4-28.5ZM1949.1,1304.9v-17.1h10.9c5.9,0,13.4,1.1,13.4,8.1s-5.5,9-12.7,9h-11.5ZM1969.2,1314.4c9.7-.8,17.1-5.5,17.1-17.4s-9.2-19.3-25.5-19.3h-24.6v65.2h12.9v-27.8h8.1l15.9,27.8h13.5l-17.4-28.5ZM1949.1,1304.9v-17.1h10.9c5.9,0,13.4,1.1,13.4,8.1s-5.5,9-12.7,9h-11.5ZM1969.2,1314.4c9.7-.8,17.1-5.5,17.1-17.4s-9.2-19.3-25.5-19.3h-24.6v65.2h12.9v-27.8h8.1l15.9,27.8h13.5l-17.4-28.5ZM1949.1,1304.9v-17.1h10.9c5.9,0,13.4,1.1,13.4,8.1s-5.5,9-12.7,9h-11.5ZM1969.2,1314.4c9.7-.8,17.1-5.5,17.1-17.4s-9.2-19.3-25.5-19.3h-24.6v65.2h12.9v-27.8h8.1l15.9,27.8h13.5l-17.4-28.5ZM1949.1,1304.9v-17.1h10.9c5.9,0,13.4,1.1,13.4,8.1s-5.5,9-12.7,9h-11.5ZM1969.2,1314.4c9.7-.8,17.1-5.5,17.1-17.4s-9.2-19.3-25.5-19.3h-24.6v65.2h12.9v-27.8h8.1l15.9,27.8h13.5l-17.4-28.5ZM1949.1,1304.9v-17.1h10.9c5.9,0,13.4,1.1,13.4,8.1s-5.5,9-12.7,9h-11.5ZM1969.2,1314.4c9.7-.8,17.1-5.5,17.1-17.4s-9.2-19.3-25.5-19.3h-24.6v65.2h12.9v-27.8h8.1l15.9,27.8h13.5l-17.4-28.5ZM1949.1,1304.9v-17.1h10.9c5.9,0,13.4,1.1,13.4,8.1s-5.5,9-12.7,9h-11.5ZM1969.2,1314.4c9.7-.8,17.1-5.5,17.1-17.4s-9.2-19.3-25.5-19.3h-24.6v65.2h12.9v-27.8h8.1l15.9,27.8h13.5l-17.4-28.5ZM1949.1,1304.9v-17.1h10.9c5.9,0,13.4,1.1,13.4,8.1s-5.5,9-12.7,9h-11.5ZM1969.2,1314.4c9.7-.8,17.1-5.5,17.1-17.4s-9.2-19.3-25.5-19.3h-24.6v65.2h12.9v-27.8h8.1l15.9,27.8h13.5l-17.4-28.5ZM1949.1,1304.9v-17.1h10.9c5.9,0,13.4,1.1,13.4,8.1s-5.5,9-12.7,9h-11.5ZM1969.2,1314.4c9.7-.8,17.1-5.5,17.1-17.4s-9.2-19.3-25.5-19.3h-24.6v65.2h12.9v-27.8h8.1l15.9,27.8h13.5l-17.4-28.5ZM1949.1,1304.9v-17.1h10.9c5.9,0,13.4,1.1,13.4,8.1s-5.5,9-12.7,9h-11.5Z"/>
  </g>
  <g>
    <g>
      <path class="st0" d="M691.2,886.3c1.2,7.7,1.1,16.3-.3,25.8l-25.4,184c-5.4,20.3-15.3,32.5-29.6,36.8l-20.8,6.1-15.6-23.6-28.5-43.8-13.9,56.2c-3.6,14.5-9.6,25-18,31.3-3.4,2.6-7.1,4.4-11.3,5.7l-25.6,7.6-51.9-105.2-38.8-78.6c-4.1-8.4-6.8-16.5-7.9-24.5-1.1-8,.6-16.6,5.2-25.9,4.6-9.3,14.3-15.9,28.9-19.6,12.5-3.2,22.6.9,30.2,12.3,1.3,1.9,2.5,4,3.6,6.3l39.8,81.4,11-43.6c4.2-16.3,11.5-27.2,21.9-32.8,2.3-1.2,4.8-2.2,7.4-2.9,14.4-3.9,26.6,1.9,36.6,17.6l21.8,34.2,13.5-94.9c2.6-18.7,10.9-30,24.8-33.8,13.8-3.8,24.1-2.7,30.8,3.4,6.7,6.1,10.6,13,11.7,20.8Z"/>
      <path class="st0" d="M691.2,886.3c-1.2-7.7-5.1-14.6-11.7-20.8-6.7-6.1-16.9-7.3-30.8-3.4-13.9,3.8-22.2,15.1-24.8,33.8l-13.5,94.9-21.8-34.2c-10-15.7-22.2-21.5-36.6-17.6-2.6.7-5.1,1.7-7.4,2.9-10.5,5.6-17.8,16.5-21.9,32.8l-11,43.6-39.8-81.4c-1.1-2.3-2.3-4.4-3.6-6.3-7.6-11.5-17.7-15.6-30.2-12.3-14.7,3.8-24.3,10.3-28.9,19.6-4.6,9.3-6.4,18-5.2,25.9,1.2,8,3.8,16.2,7.9,24.5l38.8,78.6,51.9,105.2,25.6-7.6c4.2-1.2,7.9-3.1,11.3-5.7,8.4-6.3,14.4-16.8,18-31.3l13.9-56.2,28.5,43.8,15.6,23.6,20.8-6.1c14.3-4.2,24.1-16.5,29.6-36.8l25.4-184c1.3-9.4,1.4-18,.3-25.8Z"/>
      <path class="st0" d="M800.7,1049.5c3.2,21.6-6.2,35.7-28.5,42.3l-33.7,9.9-32.9-220.1c-3.2-21.6,6.4-35.5,28.8-41.5l33.4-8.9,32.8,218.3Z"/>
      <path class="st0" d="M800.7,1049.5l-32.8-218.3-33.4,8.9c-22.4,6-32.1,19.8-28.8,41.5l32.9,220.1,33.7-9.9c22.3-6.6,31.8-20.7,28.5-42.3Z"/>
      <path class="st0" d="M1016.2,986.6c3.2,21.1-5.8,34.8-27,41-11.9,3.5-22,1.7-30.3-5.6l-87.5-75.9,12,79.2c3.2,21.4-6.1,35.3-28,41.8l-33.1,9.8-37.6-250,33.1-9c14-3.9,24.9-1.5,32.5,7l86,75.5-11.9-78c-3.2-21.1,5.9-34.5,27.3-40.3l31.9-8.5,32.6,213Z"/>
      <path class="st0" d="M1016.2,986.6l-32.6-213-31.9,8.5c-21.4,5.7-30.5,19.1-27.3,40.3l11.9,78-86-75.5c-7.6-8.5-18.4-10.9-32.5-7l-33.1,9,37.6,250,33.1-9.8c21.9-6.5,31.2-20.4,28-41.8l-12-79.2,87.5,75.9c8.3,7.2,18.5,9.1,30.3,5.6,21.3-6.3,30.3-20,27-41Z"/>
      <path class="st0" d="M1193.6,841.9c-2.9-18.5-8.9-35.9-18.1-52.2-18.9-35.2-45.8-50.6-80.9-45.9l-95,25.4,37.5,244.2,94.9-28.1c33.7-14.7,53.9-43.4,60.7-86,3.6-19.8,3.9-39,1-57.5ZM1103.5,941.9l-11.4,2.9-22.2-143.7,11.4-3.1c29.7-6.9,48,12.3,55.1,57.6,7.1,45.3-3.8,74.1-32.9,86.2Z"/>
      <path class="st0" d="M1193.6,841.9c-2.9-18.5-8.9-35.9-18.1-52.2-18.9-35.2-45.8-50.6-80.9-45.9l-95,25.4,37.5,244.2,94.9-28.1c33.7-14.7,53.9-43.4,60.7-86,3.6-19.8,3.9-39,1-57.5ZM1103.5,941.9l-11.4,2.9-22.2-143.7,11.4-3.1c29.7-6.9,48,12.3,55.1,57.6,7.1,45.3-3.8,74.1-32.9,86.2Z"/>
      <path class="st0" d="M1372.8,841.3c-4.3-26.9-17.8-43.3-40.7-49.2,14.6-14,19.9-33.3,16-57.8-5.9-37.2-28.8-50.5-69.1-39.7l-60.8,16.2-30.3,8.1,4.8,30.7,27.7,177.3,4.8,30.9,30.2-8.9,65.2-19.3c42.2-12.5,59.4-41.9,52.1-88.3ZM1255.8,750.5l15.7-4.3c13-3.6,20.7,2.2,23.1,17.4,2.4,15.2-2.7,24.5-15.4,28l-16.3,4.5-7.2-45.6ZM1296,886.2l-18.1,5.2-8.1-51.4,17.5-5c14.6-4.2,23.3,2.3,26,19.3,2.7,17.1-3.1,27.6-17.3,31.8Z"/>
      <path class="st0" d="M1372.8,841.3c-4.3-26.9-17.8-43.3-40.7-49.2,14.6-14,19.9-33.3,16-57.8-5.9-37.2-28.8-50.5-69.1-39.7l-60.8,16.2-30.3,8.1,4.8,30.7,27.7,177.3,4.8,30.9,30.2-8.9,65.2-19.3c42.2-12.5,59.4-41.9,52.1-88.3ZM1255.8,750.5l15.7-4.3c13-3.6,20.7,2.2,23.1,17.4,2.4,15.2-2.7,24.5-15.4,28l-16.3,4.5-7.2-45.6ZM1296,886.2l-18.1,5.2-8.1-51.4,17.5-5c14.6-4.2,23.3,2.3,26,19.3,2.7,17.1-3.1,27.6-17.3,31.8Z"/>
      <path class="st0" d="M1581.1,730.5c-5.7-35.3-19.7-61.3-42-78.2-22.4-16.9-48.7-21.4-78.8-13.3-30.4,8.1-53.6,25.9-69.6,53.5-16,27.7-21.2,59.7-15.5,95.9,5.7,36.2,20.2,62.7,43.5,79.4,23.1,16.6,49.7,20.4,79.6,11.6,29.7-8.8,52.4-27,68-54.6,15.6-27.5,20.5-58.8,14.8-94.2ZM1520.7,791.9c-6.8,13.8-17.4,22.7-31.7,26.8-14.4,4.1-26.9,1.9-37.4-6.9-10.6-8.7-17.3-21.8-20.1-39.2s-.7-33,6.3-46.9c7-13.8,17.7-22.7,32.1-26.6,14.4-3.9,26.7-1.4,37.1,7.5,10.4,8.9,16.9,21.9,19.7,39,2.8,17.2.7,32.6-6.1,46.3Z"/>
      <path class="st0" d="M1581.1,730.5c-5.7-35.3-19.7-61.3-42-78.2-22.4-16.9-48.7-21.4-78.8-13.3-30.4,8.1-53.6,25.9-69.6,53.5-16,27.7-21.2,59.7-15.5,95.9,5.7,36.2,20.2,62.7,43.5,79.4,23.1,16.6,49.7,20.4,79.6,11.6,29.7-8.8,52.4-27,68-54.6,15.6-27.5,20.5-58.8,14.8-94.2ZM1520.7,791.9c-6.8,13.8-17.4,22.7-31.7,26.8-14.4,4.1-26.9,1.9-37.4-6.9-10.6-8.7-17.3-21.8-20.1-39.2s-.7-33,6.3-46.9c7-13.8,17.7-22.7,32.1-26.6,14.4-3.9,26.7-1.4,37.1,7.5,10.4,8.9,16.9,21.9,19.7,39,2.8,17.2.7,32.6-6.1,46.3Z"/>
      <path class="st0" d="M1755.8,771.3c-1-7.9-5.6-15.7-13.8-23.5l-31.2-34c16.3-17.8,22-41.2,17.3-70-2.6-16.1-10.1-29.9-22.3-41.3-12.3-11.4-26-15.1-41.2-11.1l-62,16.6-27.7,7.4,36.8,228.1,27.6-8.2c18.3-5.4,25.9-17.9,22.7-37.4l-9.2-56.8,54.7,59.3c8.9,8,16.8,11.2,23.7,9.4,6.9-1.8,13-6.7,18.2-14.7,5.2-8,7.2-16,6.2-23.9ZM1661.7,693.5l-15.7,4.4-8.4-51.6,15.7-4.3c15.4-4.2,24.5,2.3,27.3,19.4,2.8,17.1-3.5,27.9-18.9,32.2Z"/>
      <path class="st0" d="M1755.8,771.3c-1-7.9-5.6-15.7-13.8-23.5l-31.2-34c16.3-17.8,22-41.2,17.3-70-2.6-16.1-10.1-29.9-22.3-41.3-12.3-11.4-26-15.1-41.2-11.1l-62,16.6-27.7,7.4,36.8,228.1,27.6-8.2c18.3-5.4,25.9-17.9,22.7-37.4l-9.2-56.8,54.7,59.3c8.9,8,16.8,11.2,23.7,9.4,6.9-1.8,13-6.7,18.2-14.7,5.2-8,7.2-16,6.2-23.9ZM1661.7,693.5l-15.7,4.4-8.4-51.6,15.7-4.3c15.4-4.2,24.5,2.3,27.3,19.4,2.8,17.1-3.5,27.9-18.9,32.2Z"/>
      <path class="st0" d="M1926.4,720.9c3.1,18.9-3.9,30.9-21.1,35.9-9.6,2.8-17.9.9-24.8-5.7l-73-69.8,11.6,70.9c3.2,19.2-4.1,31.3-21.7,36.5l-26.6,7.9-36.6-223.5,26.6-7.3c11.3-3.1,20.2-.8,26.6,7l71.8,69.4-11.5-69.9c-3.1-18.9,4-30.7,21.3-35.3l25.8-6.9,31.7,190.9Z"/>
      <path class="st0" d="M1926.4,720.9l-31.7-190.9-25.8,6.9c-17.3,4.6-24.4,16.4-21.3,35.3l11.5,69.9-71.8-69.4c-6.4-7.8-15.2-10.1-26.6-7l-26.6,7.3,36.6,223.5,26.6-7.9c17.6-5.2,24.9-17.4,21.7-36.5l-11.6-70.9,73,69.8c7,6.7,15.2,8.5,24.8,5.7,17.2-5.1,24.2-17,21.1-35.9Z"/>
      <path class="st0" d="M2030.7,719.8l-86.7,25.6-36.4-218.9,106.3-28.4,4.2,25.4c2.8,16.9-2.2,27.2-15.2,30.7l-35.9,9.8,5.2,31.2,50.3-14,4.3,25.6c2.9,17.1-2.2,27.5-15.2,31.2l-30.8,8.8,5.4,32.3,55.3-16,4.3,25.5c2.8,17-2.2,27.4-15.2,31.2Z"/>
      <path class="st0" d="M2045.9,688.6l-4.3-25.5-55.3,16-5.4-32.3,30.8-8.8c13-3.7,18-14.1,15.2-31.2l-4.3-25.6-50.3,14-5.2-31.2,35.9-9.8c13-3.6,18-13.8,15.2-30.7l-4.2-25.4-106.3,28.4,36.4,218.9,86.7-25.6c13-3.8,18-14.2,15.2-31.2Z"/>
    </g>
    <g>
      <path class="st0" d="M701.7,1528.7c-.3.4-.5.9-.8,1.3-16.5,25.8-39.5,43.8-69,53.9-6.1,2.1-12.2,4-18.3,5.6-24.1,6.5-48.2,9.5-72.3,8.9-30.4-.7-47.5-13.3-51-37.9-3.6-24.6-.4-43.9,9.5-58,22.9,3.2,42.7,4.9,59.7,5.2,22.6.3,40-2.1,52.1-7.2,21-8.8,30.8-18.3,29.3-28.5-1.5-10-8.3-16.1-20.5-18.2-12.2-2.1-29.1-3.5-50.7-4.1-21.7-.6-35.5-2.8-41.6-6.6-.9-.3-1.7-.6-2.5-1-25.2-10-39.8-31.6-43.8-64.9-2-16.8-1.5-32.7,1.6-47.6,3.2-15.7,9.2-30.4,18.1-44.1,13-20.4,30.2-35.9,51.5-46.5,6-3,12.4-5.7,19.2-7.9,30.1-10,70-10.2,119.3-.6-.4,52.5-12.6,79.2-36.8,79.7-39-2.8-65.5-.8-79.6,6-9.5,4.6-13.3,11.3-11.3,20.2,1.3,9,8.1,15,20.2,18,2,.5,4.1.9,6.3,1.4,11.4,2.3,26.1,3.9,43.9,5,21.2,1.3,34.8,3,40.8,5.4,24.9,12.1,39.9,35.4,45,70,5.1,34.6-.9,65.5-18.1,92.6Z"/>
      <path class="st0" d="M719.8,1436.1c-5.1-34.6-20.1-57.9-45-70-6-2.3-19.6-4.1-40.8-5.4-17.9-1-32.5-2.7-43.9-5-2.2-.4-4.3-.9-6.3-1.4-12.2-3-18.9-9-20.2-18-2-8.9,1.8-15.7,11.3-20.2,14.1-6.8,40.6-8.8,79.6-6,24.2-.6,36.5-27.2,36.8-79.7-49.4-9.6-89.2-9.4-119.3.6-6.7,2.2-13.1,4.9-19.2,7.9-21.3,10.6-38.4,26.1-51.5,46.5-8.8,13.7-14.8,28.4-18.1,44.1-3.1,15-3.6,30.9-1.6,47.6,4,33.3,18.7,55,43.8,64.9.8.3,1.7.7,2.5,1,6,3.8,19.9,6,41.6,6.6,21.6.6,38.5,2,50.7,4.1,12.2,2.1,19.1,8.2,20.5,18.2,1.5,10.2-8.2,19.7-29.3,28.5-12.1,5.1-29.4,7.5-52.1,7.2-16.9-.2-36.8-1.9-59.7-5.2-9.9,14.1-13,33.5-9.5,58,3.6,24.6,20.6,37.2,51,37.9,24.1.6,48.2-2.4,72.3-8.9,6.1-1.6,12.2-3.5,18.3-5.6,29.4-10.1,52.4-28.1,69-53.9.3-.4.6-.9.8-1.3,17.2-27.1,23.2-58,18.1-92.6Z"/>
      <path class="st0" d="M988.2,1194.3l-68.8,158.8,12.3,81.5c4.3,28.7-8,48-37.1,58l-44,15.1-6.5-43.5-12.3-82.3-110.1-104c-7.3-10.3-11.5-19.8-12.8-28.4-1.3-8.6.4-19.3,4.9-31.9,4.5-12.6,15.8-21.7,33.8-27.2,17.9-5.5,35.7.2,53.3,16.9l60.3,56.9,38-87.2c11-25.3,25.1-40.5,42.3-45.8,17.2-5.2,29.4-3.5,36.8,5.2,7.4,8.7,11.7,17.2,13,25.5,1.3,8.3.2,19.2-3.2,32.4Z"/>
      <path class="st0" d="M991.3,1161.8c-1.3-8.3-5.6-16.8-13-25.5-7.4-8.7-19.7-10.4-36.8-5.2-17.2,5.3-31.3,20.5-42.3,45.8l-38,87.2-60.3-56.9c-17.7-16.7-35.4-22.4-53.3-16.9-18,5.5-29.2,14.6-33.8,27.2-4.6,12.7-6.2,23.3-4.9,31.9,1.3,8.6,5.6,18.1,12.8,28.4l110.1,104,12.3,82.3,6.5,43.5,44-15.1c29.1-10,41.4-29.3,37.1-58l-12.3-81.5,68.8-158.8c3.4-13.3,4.4-24.1,3.2-32.4Z"/>
      <path class="st0" d="M1228.2,1349.7c-14.5,24.6-35,41.5-61.7,50.7-26.8,9.2-53.7,13.3-80.7,12.1-27.2-1.1-42.6-13.3-46.1-36.4-3.5-23.1-1-41.2,7.6-54.3,47.9,7.9,81,7.9,99.8,0,18.7-7.9,27.3-16.7,25.8-26.3-1.5-9.4-7.7-15.2-18.6-17.4-11-2.2-26.1-3.8-45.4-4.7-19.4-.9-31.8-3.2-37.2-6.9-24-9.4-38.1-30.2-42.3-62.5-4.2-32.3,1.2-60.9,16.3-85.8,14.6-24.3,35.4-41,62.3-50,26.8-9,62.4-8.5,106.8,1.2.4,49.4-10.2,74.2-31.8,74.4-58.5-5.3-85.6,2.4-81,23.2,1.3,8.5,7.4,14.2,18.4,17.2,10.9,3,25.9,5.2,45,6.8,19,1.5,31.2,3.4,36.6,5.7,22.5,11.7,36.2,33.8,41.3,66.4,5.1,32.6.1,61.5-14.9,86.7Z"/>
      <path class="st0" d="M1243.2,1263c-5.1-32.6-18.8-54.7-41.3-66.4-5.4-2.3-17.6-4.2-36.6-5.7-19.1-1.5-34.1-3.8-45-6.8-10.9-3-17-8.8-18.4-17.2-4.7-20.9,22.5-28.6,81-23.2,21.7-.2,32.2-25,31.8-74.4-44.3-9.8-80-10.2-106.8-1.2-27,9-47.8,25.7-62.3,50-15,24.9-20.5,53.5-16.3,85.8,4.2,32.3,18.3,53.2,42.3,62.5,5.4,3.6,17.9,6,37.2,6.9,19.3.9,34.4,2.5,45.4,4.7,11,2.2,17.2,8,18.6,17.4,1.5,9.6-7.1,18.4-25.8,26.3-18.8,8-51.9,8-99.8,0-8.6,13.1-11.2,31.2-7.6,54.3,3.5,23.1,18.9,35.2,46.1,36.4,27,1.2,53.9-2.9,80.7-12.1,26.6-9.2,47.2-26,61.7-50.7,15.1-25.2,20-54.1,14.9-86.7Z"/>
      <path class="st0" d="M1426.2,1057.8l-39.5,12.4,31.6,200.3c4.3,27.1-6.6,45.1-32.6,54.1l-39.4,13.5-38.2-243.2-40.2,12.6c-21.6,6.8-34.4-2.3-38.3-27.4l-5.9-37.6,190.7-58.2c20.7-6.3,33,2.7,36.9,27.1,3.9,24.4-4.5,39.8-25.2,46.3Z"/>
      <path class="st0" d="M1451.4,1011.4c-3.9-24.4-16.1-33.4-36.9-27.1l-190.7,58.2,5.9,37.6c3.9,25.1,16.7,34.2,38.3,27.4l40.2-12.6,38.2,243.2,39.4-13.5c26.1-9,36.9-27,32.6-54.1l-31.6-200.3,39.5-12.4c20.7-6.5,29.1-21.9,25.2-46.3Z"/>
      <path class="st0" d="M1662.8,1190.9c3.9,24-3.7,39.3-22.8,45.9l-128.4,44.1-49.5-311,157.3-48,5.8,35.8c3.8,23.9-3.8,38.8-22.9,44.8l-53,16.7,7.1,44.2,74.2-23.7,5.8,36.2c3.9,24.1-3.7,39.3-22.9,45.6l-45.5,15,7.3,45.7,81.6-27.3,5.8,36Z"/>
      <path class="st0" d="M1662.8,1190.9l-5.8-36-81.6,27.3-7.3-45.7,45.5-15c19.2-6.3,26.8-21.5,22.9-45.6l-5.8-36.2-74.2,23.7-7.1-44.2,53-16.7c19.1-6,26.7-21,22.9-44.8l-5.8-35.8-157.3,48,49.5,311,128.4-44.1c19.1-6.6,26.7-21.9,22.8-45.9Z"/>
      <path class="st0" d="M1889,1151.2c-23.3,8-37-.9-41.3-26.6l-20-122.1-35.8,84.1-58.8-53.1,20,123.1c4.2,26-5.6,43.1-29.7,51.4l-36.4,12.5-49.2-304.4,36.4-11.1c13.9-4.1,26-1.4,36.2,8.1l62.7,58.5,37.5-89.3c6.1-14.5,15.9-23.8,29.6-28l34.7-10.6,42.4,257.3c4.2,25.5-5.2,42.2-28.3,50.1Z"/>
      <path class="st0" d="M1917.4,1101.1l-42.4-257.3-34.7,10.6c-13.6,4.2-23.5,13.5-29.6,28l-37.5,89.3-62.7-58.5c-10.2-9.5-22.3-12.2-36.2-8.1l-36.4,11.1,49.2,304.4,36.4-12.5c24.1-8.3,33.9-25.4,29.7-51.4l-20-123.1,58.8,53.1,35.8-84.1,20,122.1c4.2,25.7,18,34.6,41.3,26.6,23.1-7.9,32.5-24.6,28.3-50.1Z"/>
      <path class="st0" d="M2083.3,1058.8c-11.4,21.6-27.9,36.2-49.6,43.6-21.8,7.5-43.8,10.4-66,8.6-22.3-1.8-35.2-13.1-38.6-33.8-3.4-20.7-1.8-36.8,5-48.3,39.4,8.4,66.7,9.2,81.9,2.6,15.2-6.6,22-14.2,20.6-22.8-1.4-8.5-6.7-13.9-15.7-16.1-9.1-2.2-21.5-4-37.4-5.4-15.9-1.4-26.2-3.7-30.7-7.2-19.9-9-32-28-36.2-57-4.2-29-.4-54.4,11.4-76.3,11.4-21.4,28.1-35.8,50-43.2,21.8-7.4,51.1-6.1,87.8,3.7,1.5,44.3-6.7,66.2-24.5,65.8-48.2-6.3-70.3,0-66,18.8,1.3,7.6,6.4,12.9,15.5,15.9,9,3,21.4,5.4,37.2,7.2,15.7,1.8,25.7,3.8,30.2,6,18.8,11.1,30.6,31.3,35.5,60.6,4.9,29.3,1.5,55-10.3,77.2Z"/>
      <path class="st0" d="M2093.6,981.6c-4.9-29.3-16.7-49.5-35.5-60.6-4.5-2.2-14.6-4.2-30.2-6-15.7-1.8-28.1-4.2-37.2-7.2-9-3-14.2-8.3-15.5-15.9-4.3-18.8,17.8-25,66-18.8,17.8.4,26-21.6,24.5-65.8-36.7-9.8-66-11.1-87.8-3.7-21.9,7.4-38.6,21.8-50,43.2-11.7,21.9-15.5,47.3-11.4,76.3,4.2,29,16.3,48,36.2,57,4.6,3.4,14.8,5.8,30.7,7.2,15.9,1.3,28.3,3.1,37.4,5.4,9.1,2.2,14.3,7.6,15.7,16.1,1.4,8.6-5.4,16.2-20.6,22.8-15.2,6.6-42.5,5.8-81.9-2.6-6.8,11.5-8.4,27.6-5,48.3,3.4,20.7,16.3,32,38.6,33.8,22.2,1.8,44.2-1.1,66-8.6,21.7-7.4,38.2-22,49.6-43.6,11.8-22.2,15.2-47.9,10.3-77.2Z"/>
    </g>
  </g>
</svg>